# xmcd
#
# Track frame offsets:
#	150
#	15491
#	32618
#	47794
#	63470
#	77049
#	94020
#	108417
#	122716
#	137142
#	152753
#	169661
#
# Disc length: 2439 seconds
#
# Revision: 0
# Processed by: cddbd v1.5.1PL0 Copyright (c) Steve Scherf et al.
# Submitted via: dBpowerAMP V4.0
#
DISCID=9409850c
DTITLE=Mon-Heli - Y Llythyr
DYEAR=1900
DGENRE=Welsh Country
TTITLE0=Y Llythyr
TTITLE1=Maddeuwn Y Cyfan I Ti
TTITLE2=Moel Tryfan
TTITLE3=Caru Dy Garu Di
TTITLE4=Tybed
TTITLE5=Parti Penblwydd Iesu
TTITLE6=Ble'r WyT Ti?
TTITLE7=Dim Mymryn Yn Fwy
TTITLE8=Canrif
TTITLE9=Y Llygaid Duon Duon
TTITLE10=Dyffryn Dychymyg
TTITLE11=Caneuon Canu Gwlad
EXTD=
EXTT0=
EXTT1=
EXTT2=
EXTT3=
EXTT4=
EXTT5=
EXTT6=
EXTT7=
EXTT8=
EXTT9=
EXTT10=
EXTT11=
PLAYORDER=
